# xmcd
#
# Track frame offsets:
#	187
#	21920
#	45267
#	67352
#	85907
#	109902
#	132097
#	146710
#	159940
#	222587
#	237942
#
# Disc length: 3489
#
# Revision: 6
# Processed by: cddbd v1.5.1PL0 Copyright (c) Steve Scherf et al.
# Submitted via: CDex 1.50Beta7
# Normalized: r4:DSETVAR1,TSWAP
#
DISCID=9d0d9f0b
DTITLE=Various Artist - Jazz Club Vol.8  -  Kiss Of Fire
DYEAR=1900
DGENRE=Jazz
TTITLE0=Miles Davis - You Are My Everything
TTITLE1=Red Garland - What Is There To Say?
TTITLE2=Ray Brayant - The Thrill Is Gone
TTITLE3=Cannonball Adderley - Nancy
TTITLE4=Miles Davis - There Is No Greater Love
TTITLE5=Thelonious Monk - You Are Too Beautiful
TTITLE6=Kenny Burrel - Why Was I Bone?
TTITLE7=Nat Adderley - I'Ve Got A Crush On You
TTITLE8=John Colrane - Lush Life
TTITLE9=Wes Montgomery - I'Ve Grown Accustomed To Her Face
TTITLE10=Kenny Drew - When You Wish Upon A Star
EXTD=
EXTT0=
EXTT1=
EXTT2=
EXTT3=
EXTT4=
EXTT5=
EXTT6=
EXTT7=
EXTT8=
EXTT9=
EXTT10=
PLAYORDER=
